HIERARCHY
ROOT Hips
{
 OFFSET 0.000000 0.000000 0.000000
 CHANNELS 6 Xposition Yposition Zposition Yrotation Xrotation Zrotation
 JOINT Chest
 {
  OFFSET 0.000000 9.585900 0.002600
  CHANNELS 3 Yrotation Xrotation Zrotation
  JOINT Chest2
  {
   OFFSET 0.000000 9.601200 -0.005300
   CHANNELS 3 Yrotation Xrotation Zrotation
   JOINT Chest3
   {
    OFFSET 0.000000 9.561800 0.000000
    CHANNELS 3 Yrotation Xrotation Zrotation
    JOINT Chest4
    {
     OFFSET 0.000000 9.552100 0.000000
     CHANNELS 3 Yrotation Xrotation Zrotation
     JOINT Neck
     {
      OFFSET 0.000000 14.453000 0.000000
      CHANNELS 3 Yrotation Xrotation Zrotation
      JOINT Head
      {
       OFFSET 0.000000 8.936500 -0.011300
       CHANNELS 3 Yrotation Xrotation Zrotation
       End Site
       {
        OFFSET 0.000000 17.073600 -0.006000
       }
      }
     }
     JOINT RightCollar
     {
      OFFSET -2.921100 9.558500 0.000000
      CHANNELS 3 Yrotation Xrotation Zrotation
      JOINT RightShoulder
      {
       OFFSET -13.519700 0.000000 0.000000
       CHANNELS 3 Yrotation Xrotation Zrotation
       JOINT RightElbow
       {
        OFFSET 0.000000 -29.696600 0.000000
        CHANNELS 3 Yrotation Xrotation Zrotation
        JOINT RightWrist
        {
         OFFSET 0.000000 -24.004700 0.000000
         CHANNELS 3 Yrotation Xrotation Zrotation
         End Site
         {
          OFFSET 0.000000 -17.728500 0.000000
         }
        }
       }
      }
     }
     JOINT LeftCollar
     {
      OFFSET 2.921100 9.558500 0.000000
      CHANNELS 3 Yrotation Xrotation Zrotation
      JOINT LeftShoulder
      {
       OFFSET 13.519700 0.000000 0.000000
       CHANNELS 3 Yrotation Xrotation Zrotation
       JOINT LeftElbow
       {
        OFFSET 0.000000 -29.696600 0.000000
        CHANNELS 3 Yrotation Xrotation Zrotation
        JOINT LeftWrist
        {
         OFFSET 0.000000 -24.004700 0.000000
         CHANNELS 3 Yrotation Xrotation Zrotation
         End Site
         {
          OFFSET 0.000000 -17.728500 0.000000
         }
        }
       }
      }
     }
    }
   }
  }
 }
 JOINT RightHip
 {
  OFFSET -7.771700 -0.012900 -0.001300
  CHANNELS 3 Yrotation Xrotation Zrotation
  JOINT RightKnee
  {
   OFFSET 0.000000 -40.869800 0.001200
   CHANNELS 3 Yrotation Xrotation Zrotation
   JOINT RightAnkle
   {
    OFFSET 0.000000 -39.717900 0.002100
    CHANNELS 3 Yrotation Xrotation Zrotation
    JOINT RightToe
    {
     OFFSET 0.000000 -4.965400 11.033500
     CHANNELS 3 Yrotation Xrotation Zrotation
     End Site
     {
      OFFSET 0.000000 -1.423100 5.872300
     }
    }
   }
  }
 }
 JOINT LeftHip
 {
  OFFSET 7.771700 -0.012900 -0.001300
  CHANNELS 3 Yrotation Xrotation Zrotation
  JOINT LeftKnee
  {
   OFFSET 0.000000 -40.869800 0.001200
   CHANNELS 3 Yrotation Xrotation Zrotation
   JOINT LeftAnkle
   {
    OFFSET 0.000000 -39.717900 0.002100
    CHANNELS 3 Yrotation Xrotation Zrotation
    JOINT LeftToe
    {
     OFFSET 0.000000 -4.965400 11.033500
     CHANNELS 3 Yrotation Xrotation Zrotation
     End Site
     {
      OFFSET 0.000000 -1.423100 5.872300
     }
    }
   }
  }
 }
}
MOTION
Frames: 12
Frame Time: 0.008333
0.000000 85.388000 0.000000 0.000000 -5.767877 0.000000 0.000000 11.653817 0.000000 0.000000 -5.885947 0.000000 0.000000 -0.000000 0.000000 0.000000 -0.000000 0.000000 0.000000 12.528835 0.000000 0.000000 0.711642 0.000000 0.000000 -0.000000 0.000000 0.000000 0.000000 -90.000000 0.000000 -2.309062 0.000000 0.000000 2.309062 0.000000 0.000000 -0.000000 0.000000 0.000000 -0.000000 90.000000 0.000000 -2.309062 0.000000 0.000000 2.309062 0.000000 0.000000 8.520406 0.000000 0.000000 1.905762 0.000000 -0.000000 -4.658285 0.000000 0.000000 -0.000000 0.000000 0.000000 8.520406 0.000000 0.000000 1.905762 0.000000 -0.000000 -4.658285 0.000000 0.000000 -0.000000 0.000000
10.189752 50.067285 48.726859 174.402280 -32.457773 -5.807129 6.805553 23.688498 7.556235 0.866471 3.830107 0.883516 1.416184 6.117805 1.443082 5.336132 19.721080 5.415555 -2.422453 16.500309 1.251053 -4.929069 -5.060413 3.165902 4.632909 -6.836783 -5.765253 15.636908 -14.334093 -0.796604 -148.224901 -47.750854 154.205927 -11.459632 -12.894920 24.870365 -18.429522 -5.390999 0.701682 -5.141795 -17.753443 -3.929787 119.212529 -38.643494 -141.557442 47.749268 5.428353 -27.250753 0.123911 -48.329002 9.304717 -133.213867 86.375092 -121.762826 -2.651388 -12.124449 -4.495209 -0.157367 0.534697 -0.049058 -8.106410 -51.920366 13.464141 -154.752837 81.874157 -161.932633 0.092137 -13.497088 7.175063 -0.066165 -0.501829 0.002535
10.190227 50.067238 48.726790 174.440386 -32.384461 -5.864816 6.620053 23.591578 7.548624 0.835856 3.795450 0.880738 1.367652 6.066287 1.438260 5.199323 19.667027 5.408516 -2.371321 16.413109 1.201221 -4.820692 -5.227233 3.059937 4.525958 -6.665445 -5.760805 15.494408 -14.228173 -0.779220 -148.310470 -47.904723 154.420711 -11.422757 -12.893763 24.842570 -17.952265 -5.352221 0.529615 -5.049531 -17.516385 -3.925330 119.352814 -38.925203 -141.500616 47.549600 5.604256 -27.411594 0.084604 -48.391998 9.365450 -132.623297 86.341594 -121.189868 -2.627213 -12.158123 -4.446523 -0.175386 0.565207 -0.058658 -8.221249 -51.988694 13.553838 -154.692860 81.859210 -161.881068 0.102961 -13.526397 7.174467 -0.069255 -0.481892 0.000564
10.188462 50.067329 48.723853 174.477549 -32.312986 -5.913617 6.516258 23.508470 7.552507 0.760417 3.742035 0.883345 1.325859 6.014448 1.433922 5.083291 19.608421 5.405060 -2.334253 16.323394 1.164995 -4.743140 -5.397285 2.984023 4.378090 -6.502809 -5.740000 15.344130 -14.107553 -0.738213 -148.357480 -48.065940 154.610168 -11.394153 -12.895481 24.840159 -17.534824 -5.292638 0.401014 -4.958239 -17.270545 -3.924988 119.593208 -39.236254 -141.486824 47.325082 5.807055 -27.641819 0.046266 -48.453045 9.401816 -132.364748 86.325135 -120.934723 -2.615174 -12.188045 -4.423045 -0.180526 0.579088 -0.063360 -8.322963 -52.052299 13.626288 -154.678070 81.848972 -161.874642 0.104960 -13.564134 7.179133 -0.071859 -0.468069 -0.009546
10.186597 50.067710 48.717865 174.513381 -32.248871 -5.965380 6.365008 23.413505 7.540176 0.809130 3.752304 0.878240 1.254850 5.930686 1.432110 4.996828 19.547501 5.407713 -2.316884 16.229788 1.143205 -4.707162 -5.573005 2.941885 4.177856 -6.355548 -5.699012 15.177680 -13.962496 -0.681332 -148.354444 -48.222504 154.766377 -11.374913 -12.898366 24.858474 -17.197961 -5.224533 0.320239 -4.860024 -17.026607 -3.916760 119.901723 -39.574105 -141.497510 47.087349 6.016798 -27.890984 0.019719 -48.503029 9.435926 -132.084347 86.308987 -120.651612 -2.602280 -12.235529 -4.396983 -0.169275 0.606903 -0.067312 -8.439892 -52.109493 13.712029 -154.687917 81.833676 -161.900287 0.112952 -13.591707 7.181637 -0.074118 -0.481688 -0.019661
10.187465 50.068010 48.709997 174.535368 -32.190705 -6.030401 6.278780 23.317493 7.556140 0.830309 3.762286 0.882750 1.213696 5.849544 1.423220 4.936177 19.484502 5.414552 -2.315338 16.136263 1.132090 -4.704190 -5.747289 2.925005 3.933237 -6.213720 -5.643209 14.986844 -13.794869 -0.613055 -148.292569 -48.371593 154.889258 -11.355730 -12.900616 24.884475 -16.931549 -5.147376 0.278390 -4.743694 -16.791796 -3.890794 120.236270 -39.929937 -141.511377 46.841919 6.214239 -28.108499 -0.022832 -48.550080 9.504069 -131.868336 86.292065 -120.433310 -2.581551 -12.294436 -4.359615 -0.206202 0.643120 -0.086075 -8.567504 -52.162281 13.827723 -154.722823 81.811837 -161.947982 0.140715 -13.598930 7.185255 -0.090654 -0.513813 -0.031657
10.184618 50.066949 48.700443 174.562077 -32.131458 -6.079388 6.216763 23.224575 7.556235 0.772705 3.680662 0.876839 1.237928 5.851057 1.422526 4.888281 19.418616 5.420711 -2.318477 16.048481 1.126512 -4.711651 -5.910306 2.919768 3.675582 -6.068034 -5.579030 14.765644 -13.598270 -0.540453 -148.179453 -48.516064 154.983396 -11.334798 -12.897661 24.919032 -16.697813 -5.049894 0.258910 -4.609332 -16.574927 -3.836459 120.561295 -40.295346 -141.512443 46.595766 6.386263 -28.256251 -0.069033 -48.601293 9.551869 -131.816658 86.277864 -120.390333 -2.571225 -12.320682 -4.330589 -0.216545 0.637521 -0.095007 -8.674037 -52.218281 13.908547 -154.759062 81.786327 -161.994118 0.152874 -13.633869 7.186945 -0.092989 -0.507141 -0.037382
10.183905 50.065748 48.689263 174.571923 -32.081648 -6.134983 6.175258 23.131929 7.564265 0.748955 3.630494 0.870387 1.230351 5.818794 1.421622 4.842751 19.350871 5.423195 -2.317291 15.968146 1.123324 -4.711728 -6.059496 2.917217 3.438444 -5.921590 -5.511244 14.520505 -13.356965 -0.478425 -148.041568 -48.659565 155.046966 -11.315582 -12.884848 24.975500 -16.464714 -4.924353 0.246459 -4.454937 -16.381201 -3.745239 120.836594 -40.658331 -141.486556 46.353108 6.528457 -28.322272 -0.116762 -48.643686 9.618455 -131.783411 86.270991 -120.355592 -2.570334 -12.342020 -4.313858 -0.214114 0.641978 -0.098198 -8.791751 -52.264706 14.013636 -154.880540 81.753560 -162.125649 0.171791 -13.676253 7.189751 -0.104510 -0.502994 -0.050298
10.182887 50.062810 48.678792 174.601209 -32.021262 -6.201943 6.109266 23.025663 7.562153 0.736778 3.597953 0.867153 1.211041 5.769739 1.416505 4.796039 19.284052 5.422807 -2.309895 15.892186 1.121292 -4.700492 -6.200876 2.914476 3.234764 -5.783385 -5.444296 14.265563 -13.063542 -0.441081 -147.900288 -48.803462 155.076320 -11.288537 -12.855803 25.051495 -16.224591 -4.777909 0.232045 -4.271049 -16.205692 -3.615649 121.032981 -41.007609 -141.421352 46.116284 6.643022 -28.324713 -0.161216 -48.691710 9.675544 -131.665455 86.265341 -120.223616 -2.577646 -12.380074 -4.297439 -0.214668 0.655094 -0.097523 -8.911488 -52.321721 14.117270 -154.965044 81.727321 -162.213122 0.170281 -13.718618 7.198800 -0.107742 -0.510736 -0.055915
10.183613 50.059544 48.667877 174.648276 -31.962487 -6.289332 6.043557 22.931388 7.581243 0.714123 3.555320 0.856531 1.192893 5.723087 1.411815 4.752178 19.219829 5.423014 -2.301408 15.815971 1.119635 -4.687326 -6.342828 2.911918 3.054932 -5.661256 -5.383174 14.009375 -12.719212 -0.435632 -147.762284 -48.945625 155.072333 -11.237501 -12.807044 25.132266 -15.990651 -4.626250 0.212651 -4.053655 -16.039199 -3.456089 121.142803 -41.342693 -141.311547 45.889083 6.730137 -28.300359 -0.197626 -48.735248 9.737057 -131.370202 86.247831 -119.904612 -2.579286 -12.430281 -4.268008 -0.205115 0.668873 -0.095976 -9.083076 -52.378748 14.246178 -155.129296 81.698328 -162.385062 0.183375 -13.752929 7.204766 -0.120126 -0.501604 -0.074604
10.186887 50.058599 48.652942 174.643039 -31.939139 -6.361095 6.060782 22.888722 7.644498 0.673866 3.491031 0.831674 1.178313 5.679247 1.408402 4.719356 19.157533 5.427403 -2.299480 15.736815 1.118309 -4.686628 -6.489858 2.912460 2.880673 -5.556844 -5.329696 13.749186 -12.331068 -0.460487 -147.638723 -49.092222 155.044532 -11.159318 -12.736887 25.212378 -15.781748 -4.479685 0.190439 -3.807139 -15.873296 -3.279729 121.158304 -41.659128 -141.152836 45.665859 6.796424 -28.280920 -0.224065 -48.751552 9.828686 -131.177718 86.238317 -119.698589 -2.579480 -12.455364 -4.242765 -0.203230 0.675212 -0.097542 -9.191594 -52.397037 14.373103 -155.275453 81.656245 -162.522978 0.184890 -13.813271 7.201432 -0.118468 -0.497555 -0.079557
10.186434 50.054858 48.640933 174.652334 -31.890441 -6.417256 6.013841 22.795330 7.644194 0.677724 3.461570 0.831136 1.168128 5.637166 1.406373 4.700809 19.095074 5.436945 -2.307076 15.654580 1.117903 -4.704049 -6.642136 2.918404 2.698654 -5.463388 -5.278335 13.476268 -11.910415 -0.510807 -147.539995 -49.258429 155.008517 -11.060890 -12.644266 25.294345 -15.603360 -4.339401 0.168668 -3.541740 -15.699424 -3.095163 121.075520 -41.952186 -140.940637 45.437909 6.854817 -28.285213 -0.255051 -48.794323 9.897926 -130.969506 86.217203 -119.497055 -2.559530 -12.483473 -4.206859 -0.223045 0.685851 -0.102804 -9.291805 -52.444779 14.474011 -155.362700 81.624123 -162.611414 0.186100 -13.854029 7.208578 -0.120674 -0.513810 -0.078642
